<svg xmlns="http://www.w3.org/2000/svg" width="128" height="128" viewBox="0 0 128 128">
  <title>DroneRx</title>
  <!-- Sky background circle -->
  <circle cx="64" cy="64" r="62" fill="#1e40af" stroke="#3b82f6" stroke-width="2"/>
  <!-- Drone body -->
  <rect x="52" y="56" width="24" height="16" rx="4" fill="#e2e8f0"/>
  <!-- Arms -->
  <line x1="36" y1="52" x2="56" y2="60" stroke="#94a3b8" stroke-width="3" stroke-linecap="round"/>
  <line x1="92" y1="52" x2="72" y2="60" stroke="#94a3b8" stroke-width="3" stroke-linecap="round"/>
  <line x1="36" y1="76" x2="56" y2="68" stroke="#94a3b8" stroke-width="3" stroke-linecap="round"/>
  <line x1="92" y1="76" x2="72" y2="68" stroke="#94a3b8" stroke-width="3" stroke-linecap="round"/>
  <!-- Rotors -->
  <ellipse cx="36" cy="52" rx="14" ry="4" fill="#3b82f6" opacity="0.7"/>
  <ellipse cx="92" cy="52" rx="14" ry="4" fill="#3b82f6" opacity="0.7"/>
  <ellipse cx="36" cy="76" rx="14" ry="4" fill="#3b82f6" opacity="0.7"/>
  <ellipse cx="92" cy="76" rx="14" ry="4" fill="#3b82f6" opacity="0.7"/>
  <!-- Rotor hubs -->
  <circle cx="36" cy="52" r="3" fill="#f8fafc"/>
  <circle cx="92" cy="52" r="3" fill="#f8fafc"/>
  <circle cx="36" cy="76" r="3" fill="#f8fafc"/>
  <circle cx="92" cy="76" r="3" fill="#f8fafc"/>
  <!-- Camera/sensor -->
  <circle cx="64" cy="68" r="3" fill="#0ea5e9"/>
  <!-- Medical cross on body -->
  <rect x="61" y="58" width="6" height="12" rx="1" fill="#ef4444"/>
  <rect x="58" y="61" width="12" height="6" rx="1" fill="#ef4444"/>
  <!-- Package hanging below -->
  <line x1="64" y1="72" x2="64" y2="86" stroke="#94a3b8" stroke-width="1.5"/>
  <rect x="57" y="86" width="14" height="10" rx="2" fill="#f8fafc" stroke="#94a3b8" stroke-width="1"/>
  <rect x="60" y="88" width="8" height="3" rx="1" fill="#ef4444" opacity="0.6"/>
</svg>
